# xmcd CD database file
#
# Track frame offsets:
#	150
#	20434
#	39645
#	51319
#	70786
#	83921
#	100523
#	116213
#	132546
#	147695
#	164865
#	182202
#	197450
#	214245
#	226856
#	246098
#	257316
#	278649
#
# Disc length: 3932 seconds
#
# Revision: 0
# Processed by: cddbd v1.5.1PL2 Copyright (c) Steve Scherf et al.
# Submitted via: Feurio! 1.68 - http://www.feurio.com
#
DISCID=0b0f5a12
DTITLE=Garth Brooks - The Hits Album
DYEAR=1900
DGENRE=
TTITLE0=Ain't Going Down
TTITLE1=Friends In Low Places
TTITLE2=Callin' Baton Rouge
TTITLE3=The River
TTITLE4=Much Too Young
TTITLE5=The Thunder Rolls
TTITLE6=American Honky-Tonk Bar Associaton
TTITLE7=If Tomorrow Never Comes
TTITLE8=Unanswered Pryers
TTITLE9=Standing Outside The Fire
TTITLE10=Rodeo
TTITLE11=What She's Doing Now
TTITLE12=We Shall Be Free
TTITLE13=Papa Loved Mama
TTITLE14=Shameless
TTITLE15=Two Of A Kind, Workin' On A Full House
TTITLE16=That Summer
TTITLE17=The Dancer
EXTD=
EXTT0=
EXTT1=
EXTT2=
EXTT3=
EXTT4=
EXTT5=
EXTT6=
EXTT7=
EXTT8=
EXTT9=
EXTT10=
EXTT11=
EXTT12=
EXTT13=
EXTT14=
EXTT15=
EXTT16=
EXTT17=
PLAYORDER=
